<?xml version="1.0" encoding="iso-8859-1"?>
<!-- Generator: Adobe Illustrator 19.0.0, SVG Export Plug-In . SVG Version: 6.00 Build 0)  -->
<svg version="1.1" id="Layer_1" xmlns="http://www.w3.org/2000/svg" xmlns:xlink="http://www.w3.org/1999/xlink" x="0px" y="0px"
	 viewBox="0 0 512 512" style="enable-background:new 0 0 512 512;" xml:space="preserve">
<path style="fill:#D5851F;" d="M207.238,512c-10.099,0-18.286-8.187-18.286-18.286v-36.571c0-10.099,8.187-18.286,18.286-18.286
	s18.286,8.187,18.286,18.286v36.571C225.524,503.813,217.336,512,207.238,512z"/>
<path style="fill:#B6731B;" d="M304.762,512c-10.099,0-18.286-8.187-18.286-18.286v-36.571c0-10.099,8.187-18.286,18.286-18.286
	c10.099,0,18.286,8.187,18.286,18.286v36.571C323.047,503.813,314.86,512,304.762,512z"/>
<path style="fill:#ECB45C;" d="M402.285,146.286c-10.099,0-18.286,8.187-18.286,18.286H128c0-10.099-8.187-18.286-18.286-18.286
	s-18.286,8.187-18.286,18.286v201.143c0,60.496,49.218,109.714,109.714,109.714h201.143c10.099,0,18.286-8.187,18.286-18.286
	V164.571C420.571,154.473,412.384,146.286,402.285,146.286z"/>
<g>
	<path style="fill:#D5851F;" d="M402.285,146.286c-10.099,0-18.286,8.187-18.286,18.286H255.972v310.857h146.314
		c10.099,0,18.286-8.187,18.286-18.286V164.571C420.571,154.473,412.384,146.286,402.285,146.286z"/>
	<path style="fill:#D5851F;" d="M129.274,109.718c-3,0-6.043-0.74-8.853-2.299L76.463,83.038c-8.832-4.898-12.02-16.028-7.122-24.86
		c4.897-8.831,16.026-12.02,24.86-7.122l43.958,24.381c8.832,4.898,12.02,16.029,7.122,24.86
		C141.942,106.319,135.703,109.718,129.274,109.718z"/>
</g>
<path style="fill:#B6731B;" d="M382.726,109.718c-6.43,0-12.668-3.397-16.007-9.421c-4.898-8.831-1.71-19.961,7.122-24.86
	l43.958-24.381c8.83-4.899,19.962-1.71,24.86,7.122c4.899,8.831,1.71,19.961-7.122,24.86l-43.958,24.381
	C388.769,108.978,385.726,109.718,382.726,109.718z"/>
<path style="fill:#ECB45C;" d="M256.001,0C165.255,0,91.428,73.827,91.428,164.57v0.001c0,10.099,8.186,18.284,18.284,18.286h0.001
	c10.097,0,18.284-8.186,18.286-18.284c0.004-30.248,24.6-54.858,54.836-54.858c14.661-0.001,28.444,5.705,38.81,16.068
	c10.362,10.361,16.068,24.135,16.068,38.785v0.004c0,10.099,8.186,18.284,18.284,18.286H256c10.097,0,18.285-8.186,18.286-18.284
	c0.004-30.248,24.6-54.858,54.836-54.858c14.661-0.001,28.444,5.705,38.808,16.067c10.361,10.361,16.068,24.133,16.069,38.784
	c0,10.099,8.188,18.284,18.287,18.284c10.099-0.001,18.284-8.188,18.284-18.287C420.568,73.823,346.741,0,256.001,0z"/>
<path style="fill:#D5851F;" d="M256.001,0c-0.011,0-0.021,0.001-0.029,0.001v182.855c0.01,0,0.018,0.001,0.027,0.001H256
	c10.097,0,18.285-8.186,18.286-18.284c0.004-30.248,24.6-54.858,54.836-54.858c14.661-0.001,28.444,5.705,38.808,16.067
	c10.361,10.361,16.068,24.133,16.069,38.784c0,10.099,8.188,18.284,18.287,18.284c10.099-0.001,18.284-8.188,18.284-18.287
	C420.568,73.823,346.741,0,256.001,0z"/>
<path style="fill:#F4D8AA;" d="M393.787,99.919c-17.273-17.269-40.237-26.778-64.666-26.776c-0.004,0-0.004,0-0.007,0
	c-29.842,0-56.393,14.385-73.084,36.585c-2.587-3.435-5.432-6.712-8.527-9.807c-17.271-17.269-40.24-26.779-64.667-26.778
	c-0.004,0-0.004,0-0.007,0c-50.391,0-91.394,41.014-91.401,91.429c0,90.745,73.827,164.571,164.573,164.571
	c90.745,0,164.57-73.827,164.57-164.579C420.57,140.144,411.058,117.186,393.787,99.919z"/>
<path style="fill:#ECB45C;" d="M393.787,99.919c-17.273-17.269-40.237-26.778-64.666-26.776c-0.004,0-0.004,0-0.007,0
	c-29.842,0-56.393,14.385-73.084,36.585c-0.01-0.013-0.022-0.026-0.03-0.04v219.455h0.001c90.745,0,164.57-73.827,164.57-164.579
	C420.57,140.144,411.058,117.186,393.787,99.919z"/>
<g>
	<path style="fill:#57575C;" d="M182.861,182.846c-4.814,0-9.532-1.95-12.933-5.364c-3.401-3.4-5.364-8.119-5.364-12.922
		c0-4.815,1.963-9.521,5.364-12.934c3.401-3.401,8.119-5.352,12.933-5.352c4.804,0,9.522,1.95,12.923,5.352
		c3.401,3.413,5.363,8.119,5.363,12.934c0,4.803-1.961,9.522-5.363,12.922C192.383,180.897,187.664,182.846,182.861,182.846z"/>
	<path style="fill:#57575C;" d="M329.146,182.846c-4.814,0-9.532-1.95-12.933-5.364c-3.401-3.4-5.353-8.107-5.353-12.922
		c0-4.815,1.952-9.533,5.353-12.934c3.401-3.401,8.119-5.352,12.933-5.352c4.815,0,9.522,1.95,12.923,5.352
		c3.401,3.401,5.363,8.119,5.363,12.934c0,4.803-1.961,9.522-5.363,12.922C338.668,180.897,333.962,182.846,329.146,182.846z"/>
</g>
<path style="fill:#B6731B;" d="M255.972,219.429c-10.099,0-18.286-8.187-18.286-18.286v-36.571c0-10.099,8.187-18.286,18.286-18.286
	c10.099,0,18.286,8.187,18.286,18.286v36.571C274.257,211.241,266.07,219.429,255.972,219.429z"/>
<g>
</g>
<g>
</g>
<g>
</g>
<g>
</g>
<g>
</g>
<g>
</g>
<g>
</g>
<g>
</g>
<g>
</g>
<g>
</g>
<g>
</g>
<g>
</g>
<g>
</g>
<g>
</g>
<g>
</g>
</svg>
